<svg viewBox="0 0 187 48" fill="none" xmlns="http://www.w3.org/2000/svg">
<path d="M4.95487 23.9824H0V4.23218H4.75439C6.35828 4.23218 7.53256 4.60838 8.27722 5.36076C9.04098 6.09434 9.42285 7.23233 9.42285 8.77472V9.56473C9.42285 11.5962 8.74502 12.8846 7.38935 13.4301V13.4866C8.95505 14.0132 9.7379 15.3863 9.7379 17.6059V19.2987C9.7379 20.8223 9.32738 21.9885 8.50635 22.7974C7.7044 23.5874 6.52058 23.9824 4.95487 23.9824ZM3.1505 7.05364V12.2733H4.38206C5.03125 12.2733 5.5086 12.1134 5.8141 11.7937C6.11961 11.4551 6.27236 10.919 6.27236 10.1855V9.08508C6.27236 7.73079 5.73773 7.05364 4.66847 7.05364H3.1505ZM3.1505 15.0948V21.1609H4.95487C5.52769 21.1609 5.93821 21.0198 6.18643 20.7377C6.45375 20.4367 6.58741 19.9289 6.58741 19.2141V17.493C6.58741 16.609 6.43466 15.9882 6.12915 15.6309C5.82365 15.2735 5.29857 15.0948 4.5539 15.0948H3.1505Z" fill="white"/>
<path d="M19.4557 2.20073H12.8683V0H19.4557V2.20073ZM11.4649 19.2987V4.23218H14.6154V19.5245C14.6154 20.8035 15.15 21.4431 16.2192 21.4431C17.2885 21.4431 17.8231 20.8035 17.8231 19.5245V4.23218H20.8591V19.2987C20.8591 20.8976 20.4581 22.1296 19.6562 22.9949C18.8542 23.8413 17.6895 24.2645 16.162 24.2645C14.6345 24.2645 13.4697 23.8413 12.6678 22.9949C11.8658 22.1296 11.4649 20.8976 11.4649 19.2987Z" fill="white"/>
<path d="M26.2534 23.9824H23.1029V4.23218H27.7714C29.3753 4.23218 30.5495 4.60838 31.2942 5.36076C32.058 6.09434 32.4398 7.23233 32.4398 8.77472V9.98795C32.4398 12.057 31.7525 13.3549 30.3777 13.8816V13.938C31.7716 14.3518 32.4685 15.7437 32.4685 18.1137V21.5841C32.4685 22.6563 32.583 23.4557 32.8122 23.9824H29.6044C29.4135 23.4369 29.318 22.6281 29.318 21.5559V17.9445C29.318 17.0416 29.1652 16.4115 28.8597 16.0541C28.5733 15.6967 28.0673 15.518 27.3418 15.518H26.2534V23.9824ZM26.2534 7.05364V12.6965H27.399C28.0482 12.6965 28.5256 12.5367 28.8311 12.2169C29.1366 11.8783 29.2893 11.3422 29.2893 10.6087V9.08508C29.2893 7.73079 28.7547 7.05364 27.6855 7.05364H26.2534Z" fill="white"/>
<path d="M43.2466 23.9824H34.6544V4.23218H43.2466V7.05364H37.8049V12.2733H42.1296V15.0948H37.8049V21.1609H43.2466V23.9824Z" fill="white"/>
<path d="M54.9975 23.9824H51.847L51.3028 20.117H47.6654L47.1212 23.9824H44.1998L47.4649 4.23218H51.7324L54.9975 23.9824ZM49.4698 7.47685L48.0664 17.4366H50.9018L49.4698 7.47685Z" fill="white"/>
<path d="M56.3281 19.2987V4.23218H59.4786V19.5245C59.4786 20.8035 60.0133 21.4431 61.0825 21.4431C62.1518 21.4431 62.6864 20.8035 62.6864 19.5245V4.23218H65.7224V19.2987C65.7224 20.8976 65.3214 22.1296 64.5194 22.9949C63.7175 23.8413 62.5528 24.2645 61.0252 24.2645C59.4977 24.2645 58.333 23.8413 57.5311 22.9949C56.7291 22.1296 56.3281 20.8976 56.3281 19.2987Z" fill="white"/>
<path d="M75.3027 23.9824H72.5532V4.23218H76.9926L79.0833 18.5652L81.1741 4.23218H85.6135V23.9824H82.6348V9.02866L80.2863 23.9824H77.6513L75.3027 9.02866V23.9824Z" fill="white"/>
<path d="M87.7353 19.2987V8.9158C87.7353 7.33578 88.1459 6.11315 88.9669 5.24791C89.7879 4.38266 90.9718 3.95004 92.5184 3.95004C94.065 3.95004 95.2488 4.38266 96.0698 5.24791C96.8909 6.11315 97.3014 7.33578 97.3014 8.9158V19.2987C97.3014 20.8788 96.8909 22.1014 96.0698 22.9666C95.2488 23.8319 94.065 24.2645 92.5184 24.2645C90.9718 24.2645 89.7879 23.8319 88.9669 22.9666C88.1459 22.1014 87.7353 20.8788 87.7353 19.2987ZM94.1509 19.4963V8.7183C94.1509 7.42043 93.6067 6.77149 92.5184 6.77149C91.43 6.77149 90.8858 7.42043 90.8858 8.7183V19.4963C90.8858 20.7941 91.43 21.4431 92.5184 21.4431C93.6067 21.4431 94.1509 20.7941 94.1509 19.4963Z" fill="white"/>
<path d="M102.239 23.9824H99.432V4.23218H103.327L106.506 16.0541V4.23218H109.313V23.9824H106.134L102.239 9.56473V23.9824Z" fill="white"/>
<path d="M117.268 23.9824H114.118V7.05364H110.824V4.23218H120.562V7.05364H117.268V23.9824Z" fill="white"/>
<path d="M130.68 23.9824H122.087V4.23218H130.68V7.05364H125.238V12.2733H129.563V15.0948H125.238V21.1609H130.68V23.9824Z" fill="white"/>
<path d="M135.187 23.9824H132.38V4.23218H136.275L139.455 16.0541V4.23218H142.261V23.9824H139.082L135.187 9.56473V23.9824Z" fill="white"/>
<path d="M153.195 23.9824H144.603V4.23218H153.195V7.05364H147.753V12.2733H152.078V15.0948H147.753V21.1609H153.195V23.9824Z" fill="white"/>
<path d="M154.667 19.2987V8.9158C154.667 7.31697 155.068 6.09434 155.87 5.24791C156.672 4.38266 157.836 3.95004 159.364 3.95004C160.891 3.95004 162.056 4.38266 162.858 5.24791C163.66 6.09434 164.061 7.31697 164.061 8.9158V10.6087H161.082V8.7183C161.082 7.42043 160.538 6.77149 159.45 6.77149C158.361 6.77149 157.817 7.42043 157.817 8.7183V19.5245C157.817 20.8035 158.361 21.4431 159.45 21.4431C160.538 21.4431 161.082 20.8035 161.082 19.5245V15.6591H159.507V12.8376H164.061V19.2987C164.061 20.8976 163.66 22.1296 162.858 22.9949C162.056 23.8413 160.891 24.2645 159.364 24.2645C157.836 24.2645 156.672 23.8413 155.87 22.9949C155.068 22.1296 154.667 20.8976 154.667 19.2987Z" fill="white"/>
<path d="M169.262 23.9824H166.112V4.23218H170.78C172.384 4.23218 173.558 4.60838 174.303 5.36076C175.067 6.09434 175.449 7.23233 175.449 8.77472V9.98795C175.449 12.057 174.761 13.3549 173.386 13.8816V13.938C174.78 14.3518 175.477 15.7437 175.477 18.1137V21.5841C175.477 22.6563 175.592 23.4557 175.821 23.9824H172.613C172.422 23.4369 172.327 22.6281 172.327 21.5559V17.9445C172.327 17.0416 172.174 16.4115 171.868 16.0541C171.582 15.6967 171.076 15.518 170.35 15.518H169.262V23.9824ZM169.262 7.05364V12.6965H170.408C171.057 12.6965 171.534 12.5367 171.84 12.2169C172.145 11.8783 172.298 11.3422 172.298 10.6087V9.08508C172.298 7.73079 171.763 7.05364 170.694 7.05364H169.262Z" fill="white"/>
<path d="M177.434 19.2987V8.9158C177.434 7.33578 177.844 6.11315 178.665 5.24791C179.487 4.38266 180.67 3.95004 182.217 3.95004C183.764 3.95004 184.947 4.38266 185.768 5.24791C186.589 6.11315 187 7.33578 187 8.9158V19.2987C187 20.8788 186.589 22.1014 185.768 22.9666C184.947 23.8319 183.764 24.2645 182.217 24.2645C180.67 24.2645 179.487 23.8319 178.665 22.9666C177.844 22.1014 177.434 20.8788 177.434 19.2987ZM183.849 19.4963V8.7183C183.849 7.42043 183.305 6.77149 182.217 6.77149C181.129 6.77149 180.584 7.42043 180.584 8.7183V19.4963C180.584 20.7941 181.129 21.4431 182.217 21.4431C183.305 21.4431 183.849 20.7941 183.849 19.4963Z" fill="white"/>
<path d="M51.1093 47.7884H50.1212V32.9757H55.8136V33.8645H51.1093V39.8107H54.9759V40.6995H51.1093V47.7884Z" fill="white"/>
<path d="M63.5624 47.7884H62.5528L61.8225 44.3815H57.6123L56.9034 47.7884H55.9583L59.073 32.9757H60.4048L63.5624 47.7884ZM59.6959 34.3089L57.7841 43.5139H61.6507L59.6959 34.3089Z" fill="white"/>
<path d="M66.1485 47.7884H65.2248V32.9757H66.7714L69.6069 45.9051L72.4423 32.9757H73.9889V47.7884H73.0008V34.3089L70.015 47.7884H69.1343L66.1485 34.3089V47.7884Z" fill="white"/>
<path d="M77.2889 47.7884H76.3008V32.9757H77.2889V47.7884Z" fill="white"/>
<path d="M85.3076 47.7884H79.6152V32.9757H80.6033V46.8996H85.3076V47.7884Z" fill="white"/>
<path d="M88.3184 47.7884H87.3303V41.1015L84.1297 32.9757H85.1822L87.8458 39.8107L90.5309 32.9757H91.519L88.3184 41.1015V47.7884Z" fill="white"/>
<path d="M96.5188 44.4238V36.3403C96.5188 35.1835 96.8052 34.3018 97.378 33.6952C97.9509 33.0745 98.7671 32.7641 99.8268 32.7641C100.887 32.7641 101.703 33.0745 102.276 33.6952C102.848 34.3018 103.135 35.1835 103.135 36.3403V44.4238C103.135 45.5806 102.848 46.4694 102.276 47.0901C101.703 47.6967 100.887 48 99.8268 48C98.7671 48 97.9509 47.6967 97.378 47.0901C96.8052 46.4694 96.5188 45.5806 96.5188 44.4238ZM102.147 44.4873V36.2769C102.147 34.5275 101.373 33.6529 99.8268 33.6529C98.2802 33.6529 97.5069 34.5275 97.5069 36.2769V44.4873C97.5069 46.2366 98.2802 47.1112 99.8268 47.1112C101.373 47.1112 102.147 46.2366 102.147 44.4873Z" fill="white"/>
<path d="M106.279 47.7884H105.291V32.9757H110.984V33.8645H106.279V39.8107H110.146V40.6995H106.279V47.7884Z" fill="white"/>
<path d="M113.579 47.7884H112.591V32.9757H118.284V33.8645H113.579V39.8107H117.446V40.6995H113.579V47.7884Z" fill="white"/>
<path d="M120.88 47.7884H119.891V32.9757H120.88V47.7884Z" fill="white"/>
<path d="M126.256 48C125.254 48 124.466 47.6967 123.893 47.0901C123.335 46.4835 123.056 45.6441 123.056 44.5719V36.1922C123.056 35.1201 123.335 34.2807 123.893 33.6741C124.466 33.0674 125.254 32.7641 126.256 32.7641C127.287 32.7641 128.082 33.0674 128.64 33.6741C129.213 34.2807 129.5 35.1201 129.5 36.1922V37.6946H128.555V36.1499C128.555 35.3599 128.347 34.7462 127.932 34.3089C127.531 33.8716 126.979 33.6529 126.278 33.6529C125.59 33.6529 125.046 33.8716 124.645 34.3089C124.244 34.7462 124.044 35.3599 124.044 36.1499V44.6143C124.044 45.4043 124.244 46.0179 124.645 46.4552C125.046 46.8926 125.59 47.1112 126.278 47.1112C126.979 47.1112 127.531 46.8926 127.932 46.4552C128.347 46.0179 128.555 45.4043 128.555 44.6143V42.6463H129.5V44.5719C129.5 45.6441 129.213 46.4835 128.64 47.0901C128.082 47.6967 127.287 48 126.256 48Z" fill="white"/>
<path d="M137.315 47.7884H131.429V32.9757H137.315V33.8645H132.417V39.6203H136.477V40.509H132.417V46.8996H137.315V47.7884Z" fill="white"/>
</svg>
