<svg id="emc04BxdC5t1" xmlns="http://www.w3.org/2000/svg" xmlns:xlink="http://www.w3.org/1999/xlink" viewBox="0 0 100 100" shape-rendering="geometricPrecision" text-rendering="geometricPrecision">
<style><![CDATA[
#emc04BxdC5t3_tr {animation: emc04BxdC5t3_tr__tr 3500ms linear infinite normal forwards}@keyframes emc04BxdC5t3_tr__tr { 0% {transform: translate(50px,49.999998px) rotate(0deg)} 28.571429% {transform: translate(50px,49.999998px) rotate(0deg);animation-timing-function: cubic-bezier(0.445,0.05,0.55,0.95)} 65.714286% {transform: translate(50px,49.999998px) rotate(-90deg)} 100% {transform: translate(50px,49.999998px) rotate(-90deg)}} #emc04BxdC5t3 {animation: emc04BxdC5t3_c_o 3500ms linear infinite normal forwards}@keyframes emc04BxdC5t3_c_o { 0% {opacity: 0} 14.285714% {opacity: 1} 82.857143% {opacity: 1} 97.142857% {opacity: 0} 100% {opacity: 0}} #emc04BxdC5t4_tr {animation: emc04BxdC5t4_tr__tr 3500ms linear infinite normal forwards}@keyframes emc04BxdC5t4_tr__tr { 0% {transform: translate(50px,50px) rotate(0deg)} 25.714286% {transform: translate(50px,50px) rotate(0deg);animation-timing-function: cubic-bezier(0.445,0.05,0.55,0.95)} 62.857143% {transform: translate(50px,50px) rotate(-90deg)} 100% {transform: translate(50px,50px) rotate(-90deg)}} #emc04BxdC5t4 {animation: emc04BxdC5t4_c_o 3500ms linear infinite normal forwards}@keyframes emc04BxdC5t4_c_o { 0% {opacity: 0} 14.285714% {opacity: 1} 82.857143% {opacity: 1} 97.142857% {opacity: 0} 100% {opacity: 0}}
]]></style>
<g id="emc04BxdC5t3_tr" transform="translate(50,49.999998) rotate(0)"><path id="emc04BxdC5t3" d="M61,20h-22c-1.3261,0-2.5979.5218-3.5355,1.4505C34.5268,22.3793,34,23.6389,34,24.9524v49.5238c0,1.3134.5268,2.5731,1.4645,3.5019.9376.9287,2.2094,1.4505,3.5355,1.4505h22c1.3261,0,2.5979-.5218,3.5355-1.4505C65.4732,77.0493,66,75.7896,66,74.4762v-49.5238c0-1.3135-.5268-2.5731-1.4645-3.5019C63.5979,20.5218,62.3261,20,61,20Zm3,54.4762c0,.7881-.3161,1.5439-.8787,2.1011-.5626.5573-1.3257.8703-2.1213.8703h-22c-.7956,0-1.5587-.313-2.1213-.8703-.5626-.5572-.8787-1.313-.8787-2.1011v-49.5238c0-.7881.3161-1.5439.8787-2.1011s1.3257-.8703,2.1213-.8703h3v.9904c0,.2627.1054.5147.2929.7004s.4419.2901.7071.2901h14c.2652,0,.5196-.1043.7071-.2901s.2929-.4377.2929-.7004v-.9904h3c.7956,0,1.5587.313,2.1213.8703s.8787,1.313.8787,2.1011v49.5238Z" transform="translate(-50,-49.714298)" opacity="0" fill="#fff"/></g><g id="emc04BxdC5t4_tr" transform="translate(50,50) rotate(0)"><path id="emc04BxdC5t4" d="M72.0401,42.7592c-.028.154-.0205.3127.0219.4641.0424.1513.1186.2913.2228.4094.1462.1645.3423.2765.5576.3184.2633.053.5358-.0006.7577-.1491s.3749-.3797.4254-.6427l.5114-2.6209c1.9416,3.0586,2.9843,6.5965,3.0076,10.2049.0232,3.6084-.9738,7.1401-2.8761,10.1869l-.6527-3.1315c-.0153-.1409-.0601-.2772-.1312-.4002-.0712-.1231-.1672-.23-.2819-.314-.1147-.0839-.2454-.143-.3838-.1735-.1385-.0304-.2814-.0315-.4197-.0031s-.2689.0855-.3832.1678-.2099.1877-.2806.3097c-.0706.1219-.1148.2576-.1296.3983-.0148.1406.0001.2831.0436.4182l1.024,4.9577c.0328.1758.1143.3394.2352.4718l.1768.1964c.1074.0782.2306.1317.3607.1564.13.0248.2637.0203.3913-.0131l4.9432-.9778c.2624-.0531.4929-.2067.6424-.4282s.2065-.4933.1586-.7579c-.0585-.2639-.2176-.4952-.4433-.6447s-.5-.2051-.7643-.155l-1.9949.4016c1.915-3.3324,2.8752-7.1355,2.7763-10.9954-.099-3.8598-1.2534-7.6287-3.3376-10.8965l2.4967.4867c.1304.0262.2644.0266.3944.001s.2535-.0766.3634-.1501c.1098-.0735.2039-.1681.2769-.2784s.1234-.2341.1484-.3643c.0251-.1303.0241-.2644-.0027-.3948s-.0789-.2545-.1534-.3652c-.1504-.2235-.3829-.3789-.6462-.4319L74.1317,37.02c-.2633-.0531-.5359.0005-.7577.149s-.3749.3797-.4254.6428l-.9085,4.9474Z" transform="translate(-49.999998,-50.499954)" opacity="0" fill="#fff"/></g></svg>
